<?xml version="1.0" encoding="utf-8"?>
<!-- Generator: Adobe Illustrator 28.0.0, SVG Export Plug-In . SVG Version: 6.00 Build 0)  -->
<svg version="1.1" id="Layer_1" xmlns="http://www.w3.org/2000/svg" xmlns:xlink="http://www.w3.org/1999/xlink" x="0px" y="0px"
	 viewBox="0 0 1169 997" style="enable-background:new 0 0 1169 997;" xml:space="preserve">
<style type="text/css">
	.st0{fill:#1FAAFF;}
	.st1{fill:#4DC4FF;}
	.st2{fill:#76D8FF;}
	.st3{fill:#97E7FF;}
	.st4{fill:#C0F3FF;}
	.st5{fill:#38D5F9;}
	.st6{fill:#007AA0;}
	.st7{fill:#008FCE;}
	.st8{fill:#0063A0;}
	.st9{fill:url(#SVGID_1_);}
</style>
<g id="Layer_4">
	<g>
		<rect class="st0" width="86" height="86"/>
		<rect x="115" class="st1" width="86" height="86"/>
		<rect x="230" class="st2" width="86" height="86"/>
		<rect x="345" class="st3" width="86" height="86"/>
		<rect x="460" class="st4" width="86" height="86"/>
	</g>
</g>
<g id="Layer_2_00000125578189509557084690000012288290211365652911_">
	<g id="normal">
		<path class="st5" d="M1072.8,336.6C923.5,467.2,766.1,487,658.8,482.4c-18.5-1.2-37.4-3.2-56.6-6.4
			c-82.4-13.5-120.1,39.5-135.3,69.7c0,0.1-0.1,0.1-0.1,0.2c-3.9,7.7-6.3,13.8-7.2,16.7c-5.6,17.4-12.7,33.2-21.2,47.4
			c-21.6,36.1-52.2,61.9-91.3,78.4c54-73.4,51-110.3,51-164.7c0-62.1,50.4-112.5,112.5-112.5c74.5,0,158.5,14.8,231.5,8.8
			C876.7,408.9,976.7,381.5,1072.8,336.6L1072.8,336.6z"/>
		<path class="st6" d="M762.3,329c-41.9,54.3-141.4,82-201.7,77.8c-62.4-4.4-70.2-0.3-80,2.1c-1.2,0.3-2-1.3-1-2.1
			c62.3-47.5,117.2-43.6,139.2-44C656.8,362,694.7,377.4,762.3,329L762.3,329z"/>
		<path class="st7" d="M462.2,561c11-26,47.1-95.2,140-80c189,31,349-41,401-78c-94,72-244.2,167.4-385,122
			C559.2,506,523.2,500,462.2,561L462.2,561L462.2,561z"/>
		<path class="st8" d="M491.2,541c25-14,57-45,151,5c58.2,30.9,176,1,206-13c-78,59-186,55-199,51C608,571.3,583.2,523,491.2,541
			L491.2,541L491.2,541z"/>
		<path class="st3" d="M581.7,618.5c-1.1,0.7-37.9,22.5-65.5,22.5c17.5,1.9,38.3-5.7,39.5-6.1c-40.3,19.8-76.9,14.4-97.5,22.1
			c-88,33-106.5,122.5-92.5,225.5c-36.1-102.4-13-169.7,0.6-196.7c31.6-16.1,57-39.2,75.8-69.7c6.5,0.5,45.2,2.8,68-9.1
			c-9.2,8.1-19.7,12.4-27.5,14.7c3.6,0.3,7.9,0.4,9.8-0.7c-5.7,3.4-11.5,4-14.6,4.1C509,629.4,550.9,629.7,581.7,618.5
			C581.7,618.5,581.7,618.5,581.7,618.5L581.7,618.5z"/>
	</g>
</g>
<linearGradient id="SVGID_1_" gradientUnits="userSpaceOnUse" x1="230" y1="565.48" x2="872.0699" y2="565.48">
	<stop  offset="0" style="stop-color:#97E7FF"/>
	<stop  offset="1" style="stop-color:#4DC4FF"/>
</linearGradient>
<path class="st9" d="M749.8,313.3c0,0-15,15.1-25.7,18.1c-49.8-37-109.9-57-173.1-57c-77.7,0-150.8,30.3-205.8,85.2
	c-55,55-85.2,128.1-85.2,205.8c0,65.8,21.7,128.3,61.7,179.3c0,0-7.1,27.8-5.6,39.6C262.7,727,230,650,230,565.5
	c0-177.3,143.7-321,321-321C626.1,244.4,695.1,270.2,749.8,313.3z M871.7,549.8c-0.5,0.3-15.5,11.3-29.6,15.6
	c0,77.7-30.3,150.8-85.2,205.8c-55,55-128.1,85.2-205.8,85.2c-56.9,0-111.2-16.2-157.9-46.4c-2.1,14,0,35,0,35
	c46.6,26.4,100.5,41.4,157.9,41.4c177.3,0,321-143.7,321-321C872.1,560.2,871.9,555,871.7,549.8z"/>
</svg>
