<?xml version="1.0" encoding="UTF-8"?>
<svg version="1.1" xmlns="http://www.w3.org/2000/svg" width="150" height="150" viewBox="0 0 150 150" preserveAspectRatio="xMidYMid meet">
<path d="M0 0 C1.4643045 -0.01051392 1.4643045 -0.01051392 2.95819092 -0.02124023 C6.18148339 -0.0388287 9.40389603 -0.02719312 12.62719727 -0.01367188 C14.87012399 -0.01636675 17.11304957 -0.02024913 19.35597229 -0.02526855 C24.05595018 -0.03116496 28.75562389 -0.02259657 33.45556641 -0.00390625 C39.47598489 0.01886986 45.49568958 0.00576909 51.51608181 -0.01819611 C56.14782574 -0.03266123 60.77940092 -0.0280445 65.41114998 -0.01768494 C67.63068794 -0.01501896 69.85024128 -0.01828283 72.06976128 -0.02760315 C75.17452344 -0.03777866 78.27813581 -0.02225208 81.3828125 0 C82.29781021 -0.00809692 83.21280792 -0.01619385 84.15553284 -0.02453613 C89.64462162 0.04822985 92.97381796 0.73718042 97.25610352 4.51757812 C98.25610352 6.85091146 99.25610352 9.18424479 100.25610352 11.51757812 C103.17932317 13.79996983 103.17932317 13.79996983 106.25610352 15.51757812 C108.69248583 17.61790771 109.20503895 18.36438443 110.25610352 21.51757812 C110.33948392 23.65552337 110.36344098 25.79599822 110.35375977 27.93554688 C110.35053711 29.18916016 110.34731445 30.44277344 110.34399414 31.734375 C110.33561523 33.04470703 110.32723633 34.35503906 110.31860352 35.70507812 C110.31358669 37.04036294 110.3090241 38.37564954 110.30493164 39.7109375 C110.29313047 42.97986286 110.27666649 46.24869804 110.25610352 49.51757812 C111.36211914 49.49050781 112.46813477 49.4634375 113.60766602 49.43554688 C117.46204905 49.52220859 118.63578402 49.79647711 121.25610352 52.51757812 C122.35307883 55.80850406 122.49330181 58.42869972 122.56860352 61.89257812 C122.62467773 63.57480469 122.62467773 63.57480469 122.68188477 65.29101562 C122.1499751 69.3218173 121.37332053 70.89617043 118.25610352 73.51757812 C115.45437434 73.93688453 113.11351337 73.75569561 110.25610352 73.51757812 C110.27705078 74.36465332 110.29799805 75.21172852 110.31958008 76.08447266 C110.38804406 79.24898206 110.43804339 82.41311203 110.47583008 85.578125 C110.49585671 86.9438118 110.52308684 88.30941381 110.55786133 89.67480469 C110.60676783 91.64544914 110.62701699 93.61673795 110.64672852 95.58789062 C110.66767578 96.77141113 110.68862305 97.95493164 110.71020508 99.17431641 C110.05455683 104.00143849 107.82593278 107.09492035 104.25610352 110.33007812 C99.8882094 112.92351526 95.38124587 112.6505912 90.42797852 112.61523438 C89.67897278 112.61381943 88.92996704 112.61240448 88.15826416 112.61094666 C85.77416939 112.60536472 83.39016973 112.59281558 81.00610352 112.58007812 C79.38631321 112.57506079 77.76652142 112.57049829 76.14672852 112.56640625 C72.1831504 112.5554012 68.21964306 112.53814903 64.25610352 112.51757812 C64.21485352 113.23945312 64.17360352 113.96132812 64.13110352 114.70507812 C62.9379407 118.54024433 60.62507512 120.51836386 57.25610352 122.51757812 C54.46496749 123.00411865 52.28810794 123.20481307 49.51000977 123.16455078 C48.75799286 123.17331238 48.00597595 123.18207397 47.23117065 123.19110107 C44.75971786 123.21300357 42.29007263 123.19857668 39.81860352 123.18164062 C38.09276997 123.18501143 36.36693873 123.18986626 34.64111328 123.19613647 C31.02979865 123.20349535 27.41910373 123.19283457 23.80786133 123.16943359 C19.18734914 123.14094583 14.56828915 123.15735517 9.9478302 123.18729591 C6.38575369 123.2053959 2.8240194 123.19959861 -0.73806763 123.18665695 C-2.44125543 123.18333037 -4.14447467 123.18738366 -5.84762573 123.19905472 C-8.23185058 123.21180884 -10.61375035 123.19232689 -12.99780273 123.16455078 C-14.04534225 123.17973251 -14.04534225 123.17973251 -15.11404419 123.19522095 C-20.67692193 123.07563876 -22.96444495 121.30611058 -26.74389648 117.51757812 C-28.10030709 114.80475691 -27.90115055 112.6397201 -27.93676758 109.60253906 C-27.95283051 108.3607489 -27.96889343 107.11895874 -27.98544312 105.83953857 C-27.99693139 104.47701706 -28.00753979 103.11448787 -28.01733398 101.75195312 C-28.02265766 101.06622475 -28.02798134 100.38049637 -28.03346634 99.67398834 C-28.06019547 96.04259865 -28.07956881 92.41124327 -28.09399414 88.77978516 C-28.10732128 85.7784977 -28.13514936 82.77789213 -28.17602539 79.77685547 C-28.22542491 76.14994884 -28.25012409 72.52365964 -28.25722122 68.89643097 C-28.26392179 67.51694247 -28.27911313 66.13746709 -28.30311203 64.75817108 C-28.50214737 52.62409681 -28.50214737 52.62409681 -25.52368164 48.68652344 C-22.75976876 46.52996257 -21.21105834 45.71570166 -17.74389648 45.51757812 C-17.76746216 43.97432861 -17.76746216 43.97432861 -17.79150391 42.39990234 C-17.84600983 38.56453349 -17.88032126 34.72919855 -17.90869141 30.89355469 C-17.92373113 29.2369205 -17.94416825 27.58032582 -17.97021484 25.92382812 C-18.00681164 23.53570783 -18.02367088 21.14811625 -18.03686523 18.75976562 C-18.05234909 18.02515106 -18.06783295 17.2905365 -18.08378601 16.53366089 C-18.0857122 10.5808926 -16.81528357 6.72901634 -12.74075317 2.3789978 C-8.48373557 -0.26513809 -4.91950581 -0.0434372 0 0 Z " fill="#153B55" transform="translate(27.743896484375,13.482421875)"/>
<path d="M0 0 C1.42216576 -0.01226624 1.42216576 -0.01226624 2.87306213 -0.02478027 C6.01977908 -0.04965237 9.16645089 -0.06615433 12.31323242 -0.08056641 C13.38634863 -0.08589008 14.45946484 -0.09121376 15.56509972 -0.09669876 C21.24423891 -0.12343733 26.92335605 -0.1428106 32.60253906 -0.15722656 C38.47405974 -0.17388249 44.34502 -0.21866659 50.21632862 -0.26959801 C54.72617757 -0.30322142 59.23589266 -0.31479861 63.74585533 -0.32045364 C65.91044082 -0.32717892 68.0750171 -0.34243389 70.23948097 -0.36634445 C73.26819428 -0.39789502 76.29538486 -0.39804779 79.32421875 -0.390625 C80.21947266 -0.40703033 81.11472656 -0.42343567 82.03710938 -0.44033813 C86.48039331 -0.39572951 88.30420737 -0.22596651 91.95195007 2.5418396 C93.85620117 5.19287109 93.85620117 5.19287109 93.85620117 8.19287109 C61.18620117 8.19287109 28.51620117 8.19287109 -5.14379883 8.19287109 C-5.14379883 9.18287109 -5.14379883 10.17287109 -5.14379883 11.19287109 C-3.87703812 11.18620926 -2.6102774 11.17954742 -1.30513 11.17268372 C10.62807923 11.11189042 22.56125708 11.06690694 34.49458599 11.03743458 C40.62975705 11.02177323 46.76480318 11.00052609 52.89990234 10.96655273 C58.81969749 10.93397647 64.7393724 10.91602161 70.65925026 10.90823936 C72.91870835 10.90269278 75.1781598 10.89186178 77.43756676 10.87568092 C80.60028727 10.85393006 83.7625098 10.85090324 86.92529297 10.85229492 C87.86109192 10.84150909 88.79689087 10.83072327 89.76104736 10.8196106 C95.73337151 10.84808053 99.28162824 11.63826695 103.65039062 15.97314453 C105.29326794 18.99744916 105.19594323 21.27845354 105.14916992 24.70849609 C105.13950195 25.95888672 105.12983398 27.20927734 105.11987305 28.49755859 C105.09473633 29.79951172 105.06959961 31.10146484 105.04370117 32.44287109 C105.02339844 34.41900391 105.02339844 34.41900391 105.00268555 36.43505859 C104.96732668 39.68807431 104.9179715 42.9402671 104.85620117 46.19287109 C103.95256836 46.23025391 103.04893555 46.26763672 102.11791992 46.30615234 C100.93842773 46.37189453 99.75893555 46.43763672 98.54370117 46.50537109 C97.37194336 46.56337891 96.20018555 46.62138672 94.99291992 46.68115234 C91.90662088 46.94879751 91.90662088 46.94879751 89.96313477 48.53491211 C88.13601501 51.27156192 88.46087079 53.90122904 88.48120117 57.13037109 C88.4734668 58.35626953 88.46573242 59.58216797 88.45776367 60.84521484 C88.89325072 64.50415994 89.24998143 65.66294899 91.85620117 68.19287109 C95.0421678 68.89411883 95.0421678 68.89411883 98.54370117 68.94287109 C99.72319336 68.99958984 100.90268555 69.05630859 102.11791992 69.11474609 C103.02155273 69.14052734 103.92518555 69.16630859 104.85620117 69.19287109 C104.94342647 73.58857904 104.99666987 77.98406381 105.04370117 82.38037109 C105.06883789 83.62625 105.09397461 84.87212891 105.11987305 86.15576172 C105.12954102 87.3578125 105.13920898 88.55986328 105.14916992 89.79833984 C105.16488037 90.90330811 105.18059082 92.00827637 105.19677734 93.14672852 C104.6895009 97.68385267 103.17631715 100.11240196 99.6640625 102.98706055 C96.04667246 104.54051585 92.79357487 104.56916115 88.93041992 104.48583984 C88.18282913 104.481595 87.43523834 104.47735016 86.66499329 104.47297668 C84.29085385 104.45626166 81.9175815 104.41862456 79.54370117 104.38037109 C77.92847911 104.3653149 76.31324366 104.35162813 74.69799805 104.33935547 C70.75040129 104.30638189 66.80344795 104.25465078 62.85620117 104.19287109 C62.85073273 103.19808243 62.85073273 103.19808243 62.84515381 102.18319702 C62.8032997 95.27216723 62.73393293 88.36179974 62.64868164 81.45117188 C62.62047958 78.8731143 62.5992613 76.29497038 62.58520508 73.71679688 C62.56376609 70.00785134 62.51710722 66.29994316 62.46557617 62.59130859 C62.46434753 61.44109222 62.4631189 60.29087585 62.46185303 59.10580444 C62.34872296 52.90577965 62.18864951 48.81747146 57.85620117 44.19287109 C54.74685099 42.76507835 54.74685099 42.76507835 51.85620117 42.19287109 C51.69344076 40.17464193 51.53068034 38.15641276 51.36791992 36.13818359 C50.98227081 33.79767893 50.98227081 33.79767893 47.85620117 32.19287109 C45.09599122 31.82119926 42.66767642 32.01436473 39.85620117 32.19287109 C37.08953451 34.55953776 37.08953451 34.55953776 36.85620117 41.19287109 C24.31620117 41.19287109 11.77620117 41.19287109 -1.14379883 41.19287109 C-2.13379883 37.72787109 -2.13379883 37.72787109 -3.14379883 34.19287109 C-4.89854945 32.02774786 -4.89854945 32.02774786 -7.01879883 31.96240234 C-8.07067383 31.98367187 -8.07067383 31.98367187 -9.14379883 32.00537109 C-9.84504883 32.01181641 -10.54629883 32.01826172 -11.26879883 32.02490234 C-13.23436255 32.08580976 -13.23436255 32.08580976 -15.14379883 33.19287109 C-15.26009665 28.79726071 -15.33108517 24.4020468 -15.39379883 20.00537109 C-15.42731445 18.75949219 -15.46083008 17.51361328 -15.49536133 16.22998047 C-15.50825195 15.02792969 -15.52114258 13.82587891 -15.53442383 12.58740234 C-15.55537109 11.48243408 -15.57631836 10.37746582 -15.59790039 9.23901367 C-15.04051973 5.50006826 -13.74989302 3.87620309 -11.14379883 1.19287109 C-7.7144253 -0.52181567 -3.77519162 0.01784273 0 0 Z " fill="#92CDE9" transform="translate(29.143798828125,17.80712890625)"/>
<path d="M0 0 C27.72 0 55.44 0 84 0 C84.103125 7.156875 84.20625 14.31375 84.3125 21.6875 C84.35802002 23.93908936 84.40354004 26.19067871 84.45043945 28.51049805 C84.46504755 30.30255647 84.47778746 32.09463151 84.48828125 33.88671875 C84.51386108 34.81117798 84.53944092 35.73563721 84.5657959 36.68811035 C84.56640015 37.58082642 84.56700439 38.47354248 84.56762695 39.39331055 C84.57873001 40.16386276 84.58983307 40.93441498 84.60127258 41.72831726 C83.65603946 45.29952578 81.89346343 46.77376218 79 49 C75.57835388 49.62818909 75.57835388 49.62818909 71.61108398 49.63110352 C70.52234985 49.64183647 70.52234985 49.64183647 69.41162109 49.65278625 C67.02246355 49.66963787 64.63519179 49.65029603 62.24609375 49.62890625 C60.58130234 49.6297352 58.91651101 49.63219556 57.25172424 49.63621521 C53.76725552 49.63907064 50.28343051 49.62439606 46.79907227 49.59692383 C42.33429093 49.56281432 37.8706584 49.56887011 33.4058218 49.5875864 C29.96993951 49.59815711 26.53432433 49.58921851 23.09846687 49.57420158 C21.4522487 49.56902157 19.80600261 49.5694994 18.15978813 49.57574654 C15.85908929 49.58120094 13.56003308 49.5608206 11.25952148 49.53344727 C9.95111801 49.52724869 8.64271454 49.52105011 7.29466248 49.5146637 C4 49 4 49 1.57466125 47.2532196 C-0.2156809 44.69137716 -0.48882702 43.5056049 -0.45410156 40.41503906 C-0.45361816 39.50189941 -0.45313477 38.58875977 -0.45263672 37.64794922 C-0.43217285 36.69678223 -0.41170898 35.74561523 -0.390625 34.765625 C-0.38659668 33.88503418 -0.38256836 33.00444336 -0.37841797 32.09716797 C-0.35752406 28.81456603 -0.30167836 25.53226162 -0.25 22.25 C-0.1675 14.9075 -0.085 7.565 0 0 Z " fill="#D1EEF9" transform="translate(4,83)"/>
<path d="M0 0 C24.42 0 48.84 0 74 0 C74 30.03 74 60.06 74 91 C67.73 91 61.46 91 55 91 C54.98598145 88.63884033 54.98598145 88.63884033 54.97167969 86.22998047 C54.93176329 80.38154964 54.86599854 74.53364391 54.79248047 68.68554688 C54.76428068 66.15599317 54.74306127 63.62635151 54.72900391 61.09667969 C54.70756171 57.45722454 54.6609014 53.81882585 54.609375 50.1796875 C54.60814636 49.05134491 54.60691772 47.92300232 54.60565186 46.76046753 C54.49117856 40.60305551 54.28444685 36.60041756 50 32 C46.89064982 30.57220726 46.89064982 30.57220726 44 30 C43.83723958 27.98177083 43.67447917 25.96354167 43.51171875 23.9453125 C43.12606964 21.60480784 43.12606964 21.60480784 40 20 C37.23979004 19.62832816 34.81147524 19.82149364 32 20 C29.23333333 22.36666667 29.23333333 22.36666667 29 29 C19.43 29 9.86 29 0 29 C0 19.43 0 9.86 0 0 Z " fill="#95CFEC" transform="translate(37,30)"/>
<path d="M0 0 C0.98584076 -0.00058411 1.97168152 -0.00116821 2.98739624 -0.00177002 C6.23959806 0.00101236 9.4908786 0.03211252 12.74291992 0.06347656 C15.00021362 0.07093838 17.25751379 0.07663159 19.51481628 0.08062744 C25.45138483 0.09588828 31.38756094 0.1351745 37.32397461 0.17944336 C43.38349092 0.22038604 49.44307074 0.23863635 55.50268555 0.25878906 C67.38892553 0.30166788 79.27487444 0.36992509 91.16088867 0.45410156 C91.16088867 1.44410156 91.16088867 2.43410156 91.16088867 3.45410156 C89.33591606 3.45623909 89.33591606 3.45623909 87.47407532 3.4584198 C76.01157225 3.47508503 64.54942442 3.51784438 53.08710957 3.58619213 C47.19408892 3.62049143 41.30132833 3.64557674 35.40820312 3.6496582 C29.7215826 3.65393475 24.03554902 3.68234477 18.34911156 3.72753334 C16.17902227 3.74052881 14.00886282 3.74480881 11.8387394 3.74025536 C8.80005033 3.73536411 5.76308647 3.76137734 2.72460938 3.79467773 C1.82621338 3.78605209 0.92781738 3.77742645 0.00219727 3.76853943 C-4.51102658 3.85152089 -6.26112441 3.9820902 -9.87434387 6.93281555 C-10.84690376 8.18085213 -10.84690376 8.18085213 -11.83911133 9.45410156 C-12.16911133 9.78410156 -12.49911133 10.11410156 -12.83911133 10.45410156 C-12.93958437 12.50811184 -12.96992851 14.56560512 -12.97192383 16.62207031 C-12.97321289 17.90919922 -12.97450195 19.19632813 -12.97583008 20.52246094 C-12.97373535 21.20074951 -12.97164062 21.87903809 -12.96948242 22.57788086 C-12.96425071 24.58804769 -12.96989163 26.59823357 -12.97583008 28.60839844 C-12.96726124 37.27577372 -12.5774806 45.8198905 -11.83911133 54.45410156 C-8.86911133 54.78410156 -5.89911133 55.11410156 -2.83911133 55.45410156 C-2.83911133 53.80410156 -2.83911133 52.15410156 -2.83911133 50.45410156 C0.49244118 48.78832531 4.22624926 49.334023 7.88745117 49.35644531 C9.18167496 49.35856773 9.18167496 49.35856773 10.50204468 49.36073303 C13.26336098 49.36633969 16.0245968 49.37889329 18.78588867 49.39160156 C20.65567917 49.39661571 22.52547093 49.40117876 24.39526367 49.40527344 C28.98383644 49.41631128 33.5723489 49.43358036 38.16088867 49.45410156 C38.44963867 50.58847656 38.73838867 51.72285156 39.03588867 52.89160156 C39.40713867 54.06722656 39.77838867 55.24285156 40.16088867 56.45410156 C42.68142463 57.71436954 44.01509847 57.37284602 46.78588867 57.01660156 C47.6031543 56.91476563 48.42041992 56.81292969 49.26245117 56.70800781 C49.88893555 56.62421875 50.51541992 56.54042969 51.16088867 56.45410156 C51.82088867 54.14410156 52.48088867 51.83410156 53.16088867 49.45410156 C56.13455423 50.33816429 57.87364337 51.13714123 59.97338867 53.45410156 C61.67070406 57.74205622 61.60037687 61.89018566 61.16088867 66.45410156 C59.38367177 68.23131847 57.00841667 67.57398255 54.64225769 67.57852173 C53.45543144 67.57312881 53.45543144 67.57312881 52.24462891 67.56762695 C51.41542938 67.56777298 50.58622986 67.56791901 49.73190308 67.56806946 C46.97773669 67.56737007 44.22363706 67.5595765 41.46948242 67.55175781 C39.56519101 67.54989372 37.66089912 67.54846978 35.75660706 67.54747009 C30.73420904 67.54364419 25.71183976 67.53381329 20.68945312 67.52276611 C15.56860747 67.51255354 10.44775719 67.5079728 5.3269043 67.50292969 C-4.7284469 67.49219109 -14.78377673 67.4751138 -24.83911133 67.45410156 C-24.7974371 73.77171914 -24.72510648 80.08845612 -24.6315918 86.40551758 C-24.60339006 88.55387417 -24.58217158 90.70233437 -24.56811523 92.85083008 C-24.5466751 95.94178275 -24.50001822 99.03149079 -24.44848633 102.12207031 C-24.44664337 103.55984077 -24.44664337 103.55984077 -24.44476318 105.0266571 C-24.35020438 109.34518861 -24.24383338 111.80182555 -21.92602539 115.53735352 C-18.33515544 118.83542558 -15.96643489 118.58672465 -11.15795898 118.61181641 C-10.47158859 118.61689713 -9.7852182 118.62197784 -9.07804871 118.62721252 C-7.58571274 118.63792165 -6.09336067 118.6465397 -4.60100174 118.65333176 C-2.23891019 118.66511019 0.12299765 118.68456014 2.48501587 118.70645142 C9.2014556 118.76810324 15.91787692 118.82211994 22.63452148 118.85546875 C26.74130075 118.87640984 30.84774587 118.91170876 34.95433426 118.95622635 C36.51957898 118.97039184 38.08488284 118.97911004 39.65018845 118.98228073 C41.84079719 118.98718763 44.03051871 119.01033821 46.22094727 119.03759766 C47.46733978 119.04568451 48.7137323 119.05377136 49.99789429 119.06210327 C53.35015959 119.47755841 54.73390849 120.17012136 57.16088867 122.45410156 C47.0947002 122.57005694 37.02867114 122.65884809 26.9619503 122.71316242 C22.28730011 122.7392335 17.61310754 122.77458571 12.9387207 122.83129883 C8.42588441 122.88570796 3.91348769 122.91554083 -0.59965134 122.92848778 C-2.31965427 122.93771174 -4.0396337 122.95572446 -5.75944901 122.98275185 C-8.17275838 123.01916228 -10.58426197 123.02404217 -12.99780273 123.02172852 C-14.05948166 123.04869308 -14.05948166 123.04869308 -15.14260864 123.07620239 C-20.75983748 123.01810458 -23.0343737 121.28413851 -26.83911133 117.45410156 C-28.19552194 114.74128035 -27.9963654 112.57624354 -28.03198242 109.5390625 C-28.04804535 108.29727234 -28.06410828 107.05548218 -28.08065796 105.77606201 C-28.09214624 104.41354049 -28.10275464 103.05101131 -28.11254883 101.68847656 C-28.11787251 101.00274818 -28.12319618 100.31701981 -28.12868118 99.61051178 C-28.15541032 95.97912209 -28.17478365 92.34776671 -28.18920898 88.71630859 C-28.20253612 85.71502113 -28.2303642 82.71441557 -28.27124023 79.71337891 C-28.32063975 76.08647228 -28.34533894 72.46018308 -28.35243607 68.83295441 C-28.35913664 67.4534659 -28.37432797 66.07399053 -28.39832687 64.69469452 C-28.59736221 52.56062025 -28.59736221 52.56062025 -25.61889648 48.62304688 C-22.8549836 46.46648601 -21.30627318 45.6522251 -17.83911133 45.45410156 C-17.862677 43.91085205 -17.862677 43.91085205 -17.88671875 42.33642578 C-17.94122467 38.50105693 -17.9755361 34.66572199 -18.00390625 30.83007812 C-18.01894598 29.17344394 -18.0393831 27.51684925 -18.06542969 25.86035156 C-18.10202648 23.47223127 -18.11888572 21.08463968 -18.13208008 18.69628906 C-18.14756393 17.9616745 -18.16304779 17.22705994 -18.17900085 16.47018433 C-18.18092744 10.51616927 -16.90529663 6.67066337 -12.84191895 2.31155396 C-8.55204618 -0.34204076 -4.94986 -0.07683586 0 0 Z " fill="#153250" transform="translate(27.839111328125,13.5458984375)"/>
<path d="M0 0 C0.78375 0.04125 1.5675 0.0825 2.375 0.125 C2.684375 1.259375 2.99375 2.39375 3.3125 3.5625 C4.00424531 6.91275099 4.00424531 6.91275099 5.375 8.125 C8.93799364 8.39390518 11.51642853 8.55428574 14.75 6.9375 C16.86273683 4.89007439 16.86273683 4.89007439 17.375 0.125 C29.915 0.125 42.455 0.125 55.375 0.125 C56.365 3.59 56.365 3.59 57.375 7.125 C59.89553595 8.38526798 61.2292098 8.04374445 64 7.6875 C64.81726563 7.58566406 65.63453125 7.48382813 66.4765625 7.37890625 C67.10304688 7.29511719 67.72953125 7.21132812 68.375 7.125 C69.035 4.815 69.695 2.505 70.375 0.125 C73.29017292 1.19901108 75.15310176 1.90310176 77.375 4.125 C77.375 8.085 77.375 12.045 77.375 16.125 C49.325 16.125 21.275 16.125 -7.625 16.125 C-7.625 0.36309524 -7.625 0.36309524 0 0 Z " fill="#FCCC06" transform="translate(10.625,62.875)"/>
<path d="M0 0 C2.97 0 5.94 0 9 0 C9 30.03 9 60.06 9 91 C6.03 91 3.06 91 0 91 C0 60.97 0 30.94 0 0 Z " fill="#D7EFFB" transform="translate(102,30)"/>
<path d="M0 0 C1.084021 0.00523682 2.16804199 0.01047363 3.28491211 0.01586914 C5.03964844 0.02070312 5.03964844 0.02070312 6.82983398 0.02563477 C8.67738281 0.03820312 8.67738281 0.03820312 10.56225586 0.05102539 C12.41560547 0.05779297 12.41560547 0.05779297 14.30639648 0.06469727 C17.37086999 0.07652921 20.43531879 0.09446531 23.49975586 0.11352539 C23.49975586 7.37352539 23.49975586 14.63352539 23.49975586 22.11352539 C14.58975586 22.11352539 5.67975586 22.11352539 -3.50024414 22.11352539 C-3.52086914 18.66915039 -3.54149414 15.22477539 -3.56274414 11.67602539 C-3.57184814 10.58878174 -3.58095215 9.50153809 -3.59033203 8.38134766 C-3.59282959 7.53113037 -3.59532715 6.68091309 -3.59790039 5.80493164 C-3.60313721 4.9303833 -3.60837402 4.05583496 -3.61376953 3.15478516 C-3.44434891 0.10849306 -3.06304985 0.13907999 0 0 Z " fill="#96D0EC" transform="translate(36.500244140625,82.886474609375)"/>
<path d="M0 0 C8.58 0 17.16 0 26 0 C26 7.26 26 14.52 26 22 C17.42 22 8.84 22 0 22 C0 14.74 0 7.48 0 0 Z " fill="#95CFED" transform="translate(34,110)"/>
<path d="M0 0 C8.58 0 17.16 0 26 0 C25.855625 3.444375 25.71125 6.88875 25.5625 10.4375 C25.49784546 12.06836548 25.49784546 12.06836548 25.43188477 13.73217773 C25.39377686 14.58239502 25.35566895 15.4326123 25.31640625 16.30859375 C25.27974854 17.18314209 25.24309082 18.05769043 25.20532227 18.95874023 C25 21 25 21 24 22 C22.21928754 22.08726223 20.4351686 22.10699041 18.65234375 22.09765625 C17.57275391 22.09443359 16.49316406 22.09121094 15.38085938 22.08789062 C14.24455078 22.07951172 13.10824219 22.07113281 11.9375 22.0625 C10.79732422 22.05798828 9.65714844 22.05347656 8.48242188 22.04882812 C5.65492582 22.0369976 2.82745655 22.0190615 0 22 C0 14.74 0 7.48 0 0 Z " fill="#94D0EC" transform="translate(4,83)"/>
<path d="M0 0 C3.97915159 -0.02886984 7.95827653 -0.04675406 11.9375 -0.0625 C13.07380859 -0.07087891 14.21011719 -0.07925781 15.38085938 -0.08789062 C16.46044922 -0.09111328 17.54003906 -0.09433594 18.65234375 -0.09765625 C20.15269165 -0.10551147 20.15269165 -0.10551147 21.68334961 -0.11352539 C24 0 24 0 25 1 C25.08685603 2.56172745 25.10702219 4.12729344 25.09765625 5.69140625 C25.09443359 6.63564453 25.09121094 7.57988281 25.08789062 8.55273438 C25.07951172 9.54595703 25.07113281 10.53917969 25.0625 11.5625 C25.05798828 12.55958984 25.05347656 13.55667969 25.04882812 14.58398438 C25.03700007 17.05604849 25.02051849 19.52799518 25 22 C21.58362047 22.11632513 18.16775103 22.18728897 14.75 22.25 C13.78191406 22.28351563 12.81382813 22.31703125 11.81640625 22.3515625 C4.82774808 22.44795779 4.82774808 22.44795779 1.34375 20.5625 C-0.70182197 16.66164183 -0.42587791 13.0793023 -0.25 8.75 C-0.23195312 7.90953125 -0.21390625 7.0690625 -0.1953125 6.203125 C-0.14830798 4.13492605 -0.07656724 2.06731559 0 0 Z " fill="#94D0EC" transform="translate(4,110)"/>
<path d="M0 0 C7.92 0 15.84 0 24 0 C24 7.26 24 14.52 24 22 C16.08 22 8.16 22 0 22 C0 14.74 0 7.48 0 0 Z " fill="#95D0EC" transform="translate(64,83)"/>
<path d="M0 0 C7.92 0 15.84 0 24 0 C24.103125 2.701875 24.20625 5.40375 24.3125 8.1875 C24.38078003 9.45049927 24.38078003 9.45049927 24.45043945 10.73901367 C24.52298887 14.67680881 24.23977579 16.61871718 22.09375 20.03125 C17.73085998 22.80763456 14.23286899 22.55516906 9.1875 22.3125 C6.155625 22.209375 3.12375 22.10625 0 22 C0 14.74 0 7.48 0 0 Z " fill="#95D1EC" transform="translate(64,110)"/>
<path d="M0 0 C0.85257889 -0.00137466 1.70515778 -0.00274933 2.58357239 -0.00416565 C3.52080643 -0.00057037 4.45804047 0.0030249 5.42367554 0.00672913 C6.40907822 0.0065831 7.3944809 0.00643707 8.40974426 0.00628662 C11.67791927 0.00698518 14.94603779 0.01477497 18.21420288 0.02259827 C20.47578907 0.02446265 22.73737566 0.02588646 24.9989624 0.02688599 C30.96006377 0.03070959 36.9211409 0.04053855 42.88223267 0.05158997 C48.96163607 0.06180745 55.04104337 0.06638433 61.12045288 0.07142639 C73.05535939 0.08216094 84.99024787 0.0992355 96.92514038 0.12025452 C96.92514038 1.11025452 96.92514038 2.10025452 96.92514038 3.12025452 C95.10016777 3.12239204 95.10016777 3.12239204 93.23832703 3.12457275 C81.77582396 3.14123799 70.31367613 3.18399733 58.85136127 3.25234509 C52.95834063 3.28664438 47.06558004 3.31172969 41.17245483 3.31581116 C35.48583431 3.32008771 29.79980073 3.34849773 24.11336327 3.39368629 C21.94327398 3.40668177 19.77311452 3.41096176 17.6029911 3.40640831 C14.56430204 3.40151706 11.52733818 3.42753029 8.48886108 3.46083069 C7.59046509 3.45220505 6.69206909 3.44357941 5.76644897 3.43469238 C1.25322513 3.51767384 -0.4968727 3.64824315 -4.11009216 6.59896851 C-4.75846542 7.43099289 -5.40683868 8.26301727 -6.07485962 9.12025452 C-6.40485962 9.45025452 -6.73485962 9.78025452 -7.07485962 10.12025452 C-7.2331122 12.11807578 -7.32605133 14.12114286 -7.39126587 16.12416077 C-7.4331604 17.33910217 -7.47505493 18.55404358 -7.51821899 19.80580139 C-7.5575354 21.08519592 -7.59685181 22.36459045 -7.63735962 23.68275452 C-7.68054321 24.96601624 -7.72372681 26.24927795 -7.76821899 27.57142639 C-7.87470762 30.75425305 -7.97671924 33.93716125 -8.07485962 37.12025452 C-9.06485962 37.12025452 -10.05485962 37.12025452 -11.07485962 37.12025452 C-11.19908471 32.95775844 -11.28948609 28.79626282 -11.34951782 24.63246155 C-11.37455887 23.2182077 -11.40860304 21.80408194 -11.45205688 20.39027405 C-11.84962366 7.116221 -11.84962366 7.116221 -8.68032837 3.22181702 C-5.46228952 0.62615749 -4.02270457 -0.00499095 0 0 Z " fill="#113353" transform="translate(22.074859619140625,13.879745483398438)"/>
<path d="M0 0 C1.485 0.99 1.485 0.99 3 2 C3.37181091 3.87727356 3.37181091 3.87727356 3.36889648 6.18676758 C3.37577988 7.05139114 3.38266327 7.91601471 3.38975525 8.80683899 C3.38359695 9.74327744 3.37743866 10.67971588 3.37109375 11.64453125 C3.38848067 13.6204444 3.406065 15.59635582 3.42382812 17.57226562 C3.43389523 20.69282266 3.43749958 23.81326531 3.43579102 26.93383789 C3.43936327 29.94191724 3.46672175 32.94910971 3.49609375 35.95703125 C3.48791122 36.887397 3.4797287 37.81776276 3.47129822 38.77632141 C3.52024998 43.03993891 3.61103327 45.37463475 5.90649414 49.06518555 C9.49735811 52.38385575 11.86012121 52.13255757 16.68115234 52.15771484 C17.36752274 52.16279556 18.05389313 52.16787628 18.76106262 52.17311096 C20.25339858 52.18382009 21.74575066 52.19243814 23.23810959 52.19923019 C25.60020114 52.21100862 27.96210898 52.23045857 30.3241272 52.25234985 C37.04056693 52.31400168 43.75698824 52.36801837 50.47363281 52.40136719 C54.58041208 52.42230828 58.68685719 52.4576072 62.79344559 52.50212479 C64.35869031 52.51629028 65.92399416 52.52500847 67.48929977 52.52817917 C69.67990852 52.53308606 71.86963004 52.55623665 74.06005859 52.58349609 C75.30645111 52.59158295 76.55284363 52.5996698 77.83700562 52.60800171 C81.18927092 53.02345685 82.57301981 53.7160198 85 56 C74.93381153 56.11595537 64.86778247 56.20474653 54.80106163 56.25906086 C50.12641144 56.28513194 45.45221886 56.32048415 40.77783203 56.37719727 C36.26499574 56.4316064 31.75259902 56.46143927 27.23945999 56.47438622 C25.51945706 56.48361018 23.79947763 56.5016229 22.07966232 56.52865028 C19.66635294 56.56506071 17.25484936 56.56994061 14.84130859 56.56762695 C14.13352264 56.58560333 13.42573669 56.60357971 12.69650269 56.62210083 C7.07927384 56.56400301 4.80473763 54.83003695 1 51 C-0.21983748 48.56032503 -0.12051527 47.00095476 -0.11352539 44.27490234 C-0.11344986 43.29403656 -0.11337433 42.31317078 -0.11329651 41.30258179 C-0.10813522 40.24108917 -0.10297394 39.17959656 -0.09765625 38.0859375 C-0.0962413 37.00116119 -0.09482635 35.91638489 -0.09336853 34.79873657 C-0.08775802 31.32413 -0.07520372 27.84958719 -0.0625 24.375 C-0.05748635 22.02343843 -0.05292321 19.67187585 -0.04882812 17.3203125 C-0.03778518 11.54685314 -0.02103679 5.77343112 0 0 Z " fill="#113554" transform="translate(0,80)"/>
<path d="M0 0 C1.32547852 0.00773437 1.32547852 0.00773437 2.67773438 0.015625 C4.05735352 0.0465625 4.05735352 0.0465625 5.46484375 0.078125 C6.38845703 0.08328125 7.31207031 0.0884375 8.26367188 0.09375 C15.09323287 0.17356956 15.09323287 0.17356956 17.40234375 1.328125 C17.42919787 3.64056292 17.44867216 5.9530877 17.46484375 8.265625 C17.47644531 9.55339844 17.48804688 10.84117188 17.5 12.16796875 C17.40234375 15.328125 17.40234375 15.328125 16.40234375 16.328125 C12.763352 16.57968769 9.11150702 16.51334726 5.46484375 16.515625 C4.43681641 16.52787109 3.40878906 16.54011719 2.34960938 16.55273438 C0.87717773 16.55563477 0.87717773 16.55563477 -0.625 16.55859375 C-1.98226196 16.56475708 -1.98226196 16.56475708 -3.36694336 16.57104492 C-5.59765625 16.328125 -5.59765625 16.328125 -7.59765625 14.328125 C-7.8984375 11.83203125 -7.8984375 11.83203125 -7.91015625 8.890625 C-7.92691406 7.92253906 -7.94367188 6.95445313 -7.9609375 5.95703125 C-7.28084629 1.03551096 -4.67925974 -0.05402549 0 0 Z " fill="#259CD7" transform="translate(127.59765625,66.671875)"/>
<path d="M0 0 C0.33 0 0.66 0 1 0 C1 61.57692308 1 61.57692308 -1.625 65.3125 C-4.83284572 67.5917588 -7.15720211 67.29559984 -11 67 C-11 66.67 -11 66.34 -11 66 C-34.1 65.67 -57.2 65.34 -81 65 C-81 64.67 -81 64.34 -81 64 C-80.09433289 63.99635437 -79.18866577 63.99270874 -78.2555542 63.98895264 C-69.72121665 63.95108885 -61.18726188 63.89425461 -52.65319443 63.81609726 C-48.2656886 63.77658478 -43.87838459 63.74441497 -39.49072266 63.72900391 C-35.25647976 63.7138619 -31.02279159 63.67946081 -26.78879547 63.63169098 C-25.17332022 63.61685167 -23.55776578 63.60895752 -21.9422226 63.60811615 C-19.67930435 63.60575226 -17.41792639 63.57872295 -15.15527344 63.54589844 C-13.86731873 63.53701599 -12.57936401 63.52813354 -11.25238037 63.51898193 C-7.95315826 63.24432201 -7.95315826 63.24432201 -5.58691406 61.2467041 C-3.81220729 58.73412886 -3.48904535 57.54694586 -3.45410156 54.50683594 C-3.43428223 53.61399902 -3.41446289 52.72116211 -3.39404297 51.80126953 C-3.39291504 50.87169434 -3.39178711 49.94211914 -3.390625 48.984375 C-3.37499512 48.12344238 -3.35936523 47.26250977 -3.34326172 46.37548828 C-3.29076054 43.16727114 -3.27241195 39.95856842 -3.25 36.75 C-3.1675 29.5725 -3.085 22.395 -3 15 C-30.72 15 -58.44 15 -87 15 C-87 29.19 -87 43.38 -87 58 C-87.33 58 -87.66 58 -88 58 C-88 43.48 -88 28.96 -88 14 C-59.62 14 -31.24 14 -2 14 C-2 26.87 -2 39.74 -2 53 C-1.34 53 -0.68 53 0 53 C0 35.51 0 18.02 0 0 Z " fill="#2E5979" transform="translate(91,68)"/>
<path d="M0 0 C0.66 0.33 1.32 0.66 2 1 C0.5 3.5 0.5 3.5 -2 6 C-4.70424896 6.33107847 -7.26470369 6.11119091 -10 6 C-9.97905273 6.8470752 -9.95810547 7.69415039 -9.93652344 8.56689453 C-9.86805945 11.73140393 -9.81806013 14.89553391 -9.78027344 18.06054688 C-9.76024681 19.42623368 -9.73301668 20.79183569 -9.69824219 22.15722656 C-9.64933568 24.12787102 -9.62908653 26.09915983 -9.609375 28.0703125 C-9.58842773 29.25383301 -9.56748047 30.43735352 -9.54589844 31.65673828 C-10.20154668 36.48386037 -12.43017073 39.57734223 -16 42.8125 C-20.42656075 45.44077045 -25.2460183 45.2070049 -30.265625 45.31640625 C-31.45572174 45.3475779 -31.45572174 45.3475779 -32.66986084 45.37937927 C-35.19648844 45.44459973 -37.72321721 45.50363144 -40.25 45.5625 C-41.96615616 45.6057114 -43.68230222 45.64932653 -45.3984375 45.69335938 C-49.59885546 45.80025283 -53.79937489 45.90159729 -58 46 C-57.125 42.125 -57.125 42.125 -56 41 C-53.55112711 40.88935414 -51.12570581 40.83839384 -48.67578125 40.82421875 C-47.15688741 40.80100559 -45.63800718 40.77688767 -44.11914062 40.75195312 C-41.72069403 40.71693752 -39.32274247 40.68755758 -36.92407227 40.67407227 C-34.61152604 40.6585197 -32.3004384 40.61825015 -29.98828125 40.57421875 C-28.92387566 40.57708138 -28.92387566 40.57708138 -27.83796692 40.58000183 C-22.78688317 40.45696776 -19.84919639 39.24577983 -16 36 C-13.5962176 32.71665769 -13.6947703 29.47491098 -13.5859375 25.484375 C-13.54726562 24.23398438 -13.50859375 22.98359375 -13.46875 21.6953125 C-13.4378125 20.39335938 -13.406875 19.09140625 -13.375 17.75 C-13.33632812 16.43257812 -13.29765625 15.11515625 -13.2578125 13.7578125 C-13.16353818 10.50534839 -13.0779325 7.25289004 -13 4 C-10.01538086 3.6887207 -10.01538086 3.6887207 -7.03076172 3.37744141 C-4.28867266 2.86779129 -2.31845353 1.50017581 0 0 Z " fill="#123255" transform="translate(148,81)"/>
<path d="M0 0 C0.78375 0.04125 1.5675 0.0825 2.375 0.125 C2.684375 1.259375 2.99375 2.39375 3.3125 3.5625 C4.00424531 6.91275099 4.00424531 6.91275099 5.375 8.125 C6.89428038 8.19679964 8.41667482 8.20892007 9.9375 8.1875 C10.76378906 8.17847656 11.59007813 8.16945313 12.44140625 8.16015625 C13.07949219 8.14855469 13.71757812 8.13695313 14.375 8.125 C14.045 8.785 13.715 9.445 13.375 10.125 C8.095 10.125 2.815 10.125 -2.625 10.125 C-3.285 11.445 -3.945 12.765 -4.625 14.125 C22.105 14.125 48.835 14.125 76.375 14.125 C76.39012945 5.72366609 76.39012945 5.72366609 73.375 3.125 C72.055 4.445 70.735 5.765 69.375 7.125 C69.705 4.815 70.035 2.505 70.375 0.125 C73.29017292 1.19901108 75.15310176 1.90310176 77.375 4.125 C77.375 8.085 77.375 12.045 77.375 16.125 C49.325 16.125 21.275 16.125 -7.625 16.125 C-7.625 0.36309524 -7.625 0.36309524 0 0 Z " fill="#EFC51C" transform="translate(10.625,62.875)"/>
<path d="M0 0 C32.67 0 65.34 0 99 0 C98.34 0.33 97.68 0.66 97 1 C97 1.66 97 2.32 97 3 C64.99 3 32.98 3 0 3 C0 2.01 0 1.02 0 0 Z " fill="#0C3354" transform="translate(24,26)"/>
<path d="M0 0 C3.3 0 6.6 0 10 0 C10 9.57 10 19.14 10 29 C6.7 29 3.4 29 0 29 C0 19.43 0 9.86 0 0 Z " fill="#D3EEF9" transform="translate(37,30)"/>
<path d="M0 0 C2.25 0.5 2.25 0.5 5 2 C6.01171875 3.7734375 6.01171875 3.7734375 6.9375 5.875 C8.79927697 10.06021409 10.99380812 11.69857062 15 14 C16.6652832 15.23168945 16.6652832 15.23168945 18 17 C18.34057617 19.72729492 18.34057617 19.72729492 18.29296875 22.98046875 C18.28330078 24.14384766 18.27363281 25.30722656 18.26367188 26.50585938 C18.23853516 27.72080078 18.21339844 28.93574219 18.1875 30.1875 C18.16719727 32.02731445 18.16719727 32.02731445 18.14648438 33.90429688 C18.11108741 36.93663664 18.0617076 39.96809996 18 43 C17.34 43 16.68 43 16 43 C16 44.98 16 46.96 16 49 C15.67 49 15.34 49 15 49 C14.9906543 48.17798096 14.98130859 47.35596191 14.97167969 46.5090332 C14.91792129 42.77625038 14.83428169 39.04471319 14.75 35.3125 C14.73582031 34.01892578 14.72164063 32.72535156 14.70703125 31.39257812 C14.67480469 30.14541016 14.64257812 28.89824219 14.609375 27.61328125 C14.5779541 25.89298706 14.5779541 25.89298706 14.54589844 24.13793945 C13.89301973 20.3850548 12.63827221 18.69974174 10 16 C7.91365324 15.00243506 7.91365324 15.00243506 5.75 14.6875 C3.89375 14.3471875 3.89375 14.3471875 2 14 C2 13.34 2 12.68 2 12 C2.66 12 3.32 12 4 12 C2.47444034 7.18877153 2.47444034 7.18877153 -1 4 C-4.05053097 3.87696927 -7.07966737 3.81419677 -10.13134766 3.79467773 C-11.07773605 3.78477814 -12.02412445 3.77487854 -12.99919128 3.76467896 C-16.13745596 3.73300978 -19.27573579 3.70828512 -22.4140625 3.68359375 C-24.58597209 3.6630289 -26.75787764 3.64203256 -28.92977905 3.62062073 C-34.65410085 3.56535161 -40.37845905 3.51596369 -46.10284424 3.46777344 C-51.94099173 3.41759372 -57.77908617 3.36188926 -63.6171875 3.30664062 C-75.07807971 3.19899986 -86.53901793 3.09756806 -98 3 C-98 2.67 -98 2.34 -98 2 C-65.66 2 -33.32 2 0 2 C0 1.34 0 0.68 0 0 Z " fill="#3C6386" transform="translate(119,15)"/>
<path d="M0 0 C6.81606765 -0.76955603 6.81606765 -0.76955603 10.5 1.625 C12 4 12 4 12 10 C24.54 10 37.08 10 50 10 C50 10.33 50 10.66 50 11 C31.19 11.495 31.19 11.495 12 12 C11.67 12.99 11.34 13.98 11 15 C10.34 15 9.68 15 9 15 C9 16.65 9 18.3 9 20 C5.7 20 2.4 20 -1 20 C-1.22162857 17.22964291 -1.42779249 14.45961005 -1.625 11.6875 C-1.68945312 10.90181641 -1.75390625 10.11613281 -1.8203125 9.30664062 C-1.871875 8.54931641 -1.9234375 7.79199219 -1.9765625 7.01171875 C-2.02893066 6.31522217 -2.08129883 5.61872559 -2.13525391 4.90112305 C-2 3 -2 3 0 0 Z " fill="#0F4067" transform="translate(16,49)"/>
<path d="M0 0 C2.50553932 2.10453513 3.86831888 3.29671489 4.48101807 6.56903076 C4.4676944 8.02131073 4.4676944 8.02131073 4.45410156 9.50292969 C4.45379944 10.60376892 4.45349731 11.70460815 4.45318604 12.83880615 C4.43254089 14.02121887 4.41189575 15.20363159 4.390625 16.421875 C4.38496521 17.63699768 4.37930542 18.85212036 4.37347412 20.10406494 C4.35107734 23.98644343 4.30087187 27.86790028 4.25 31.75 C4.2299394 34.38149709 4.21168787 37.01300864 4.1953125 39.64453125 C4.15120153 46.09666881 4.08425519 52.54826856 4 59 C3.34 59 2.68 59 2 59 C2 46.13 2 33.26 2 20 C-26.38 20 -54.76 20 -84 20 C-84 19.67 -84 19.34 -84 19 C-55.95 18.67 -27.9 18.34 1 18 C1.33 13.05 1.66 8.1 2 3 C1.34 3 0.68 3 0 3 C0 2.01 0 1.02 0 0 Z " fill="#0F3657" transform="translate(87,62)"/>
<path d="M0 0 C0.33 0 0.66 0 1 0 C1 2.97 1 5.94 1 9 C29.05 9 57.1 9 86 9 C86 6.03 86 3.06 86 0 C86.33 0 86.66 0 87 0 C87.02688151 1.64574566 87.04634123 3.29161413 87.0625 4.9375 C87.07410156 5.85402344 87.08570312 6.77054687 87.09765625 7.71484375 C87 10 87 10 86 11 C83.33384308 11.14107404 80.69198699 11.21790022 78.02368164 11.25292969 C77.18794113 11.26764816 76.35220062 11.28236664 75.49113464 11.29753113 C72.71419965 11.34460672 69.93722943 11.38387148 67.16015625 11.421875 C65.23823545 11.45005151 63.31631468 11.47822942 61.39439392 11.50640869 C57.36005852 11.56398025 53.32568836 11.61689218 49.29125977 11.66748047 C44.11105359 11.73346712 38.93132815 11.81805598 33.75147343 11.9070549 C29.78058256 11.97203104 25.80959976 12.02357589 21.83846855 12.07138824 C19.92815319 12.09670975 18.01789827 12.12709922 16.10774422 12.16255951 C13.44035735 12.21077184 10.77340758 12.24009206 8.10571289 12.26464844 C7.31031097 12.28321396 6.51490906 12.30177948 5.69540405 12.32090759 C3.49867249 12.32952881 3.49867249 12.32952881 0 12 C-2 9 -2 9 -1.7578125 6.73828125 C-1.44457031 5.53751953 -1.44457031 5.53751953 -1.125 4.3125 C-0.92132813 3.50425781 -0.71765625 2.69601563 -0.5078125 1.86328125 C-0.34023438 1.24839844 -0.17265625 0.63351563 0 0 Z " fill="#404622" transform="translate(2,70)"/>
<path d="M0 0 C0.90105469 0.02707031 1.80210937 0.05414063 2.73046875 0.08203125 C3.76107422 0.13423828 3.76107422 0.13423828 4.8125 0.1875 C5.0361337 1.60183206 5.24076476 3.01917618 5.4375 4.4375 C5.55351562 5.22640625 5.66953125 6.0153125 5.7890625 6.828125 C5.81569395 9.50902459 5.17842084 10.91444089 3.8125 13.1875 C6.4525 13.1875 9.0925 13.1875 11.8125 13.1875 C11.8125 13.5175 11.8125 13.8475 11.8125 14.1875 C8.85410645 14.21439449 5.89595573 14.23428741 2.9375 14.25 C1.67486328 14.26256836 1.67486328 14.26256836 0.38671875 14.27539062 C-0.41894531 14.27861328 -1.22460938 14.28183594 -2.0546875 14.28515625 C-2.79831543 14.29039307 -3.54194336 14.29562988 -4.30810547 14.30102539 C-6.1875 14.1875 -6.1875 14.1875 -8.1875 13.1875 C-8.26871924 11.58417209 -8.32679134 9.97965974 -8.375 8.375 C-8.40980469 7.48167969 -8.44460937 6.58835937 -8.48046875 5.66796875 C-8.1875 3.1875 -8.1875 3.1875 -7 1.375 C-4.55672469 -0.22576658 -2.89489128 -0.11278797 0 0 Z " fill="#2D9DD2" transform="translate(130.1875,67.8125)"/>
<path d="M0 0 C0 1.32 0 2.64 0 4 C-0.66 4 -1.32 4 -2 4 C-2.02685938 6.14576637 -2.04633088 8.29162645 -2.0625 10.4375 C-2.07410156 11.63246094 -2.08570312 12.82742187 -2.09765625 14.05859375 C-2.33901792 16.88873341 -2.33901792 16.88873341 -1 18 C0.63256758 18.15714654 2.27135338 18.25085414 3.91015625 18.31640625 C5.39418945 18.37924805 5.39418945 18.37924805 6.90820312 18.44335938 C7.94912109 18.48267578 8.99003906 18.52199219 10.0625 18.5625 C11.10728516 18.60568359 12.15207031 18.64886719 13.22851562 18.69335938 C15.81886884 18.79981225 18.40932186 18.9018276 21 19 C20.67 19.66 20.34 20.32 20 21 C17.36 21 14.72 21 12 21 C12 30.24 12 39.48 12 49 C11.67 49 11.34 49 11 49 C11 40.42 11 31.84 11 23 C6.71 23 2.42 23 -2 23 C-6.13308756 17.83364054 -6.55259285 17.08428972 -6.5 10.9375 C-6.5103125 9.72964844 -6.520625 8.52179688 -6.53125 7.27734375 C-5.90224724 3.39695171 -4.38514117 0 0 0 Z " fill="#0C4167" transform="translate(123,64)"/>
<path d="M0 0 C2.91517292 1.07401108 4.77810176 1.77810176 7 4 C7 7.96 7 11.92 7 16 C-21.05 16 -49.1 16 -78 16 C-78 5.875 -78 5.875 -75 2 C-75 6.34613494 -75.56754341 10.6754341 -76 15 C-48.94 15 -21.88 15 6 15 C6.1374827 5.71532417 6.1374827 5.71532417 3 3 C1.68 4.32 0.36 5.64 -1 7 C-0.67 4.69 -0.34 2.38 0 0 Z " fill="#E1C647" transform="translate(81,63)"/>
<path d="M0 0 C0.66 0 1.32 0 2 0 C1.67 3.3 1.34 6.6 1 10 C0.67 10 0.34 10 0 10 C0 8.35 0 6.7 0 5 C-12.54 5 -25.08 5 -38 5 C-38 4.01 -38 3.02 -38 2 C-25.46 2 -12.92 2 0 2 C0 1.34 0 0.68 0 0 Z " fill="#263B35" transform="translate(66,58)"/>
<path d="M0 0 C31.68 0 63.36 0 96 0 C96 0.33 96 0.66 96 1 C68.28 1 40.56 1 12 1 C12 1.66 12 2.32 12 3 C8.04 3 4.08 3 0 3 C0 2.01 0 1.02 0 0 Z " fill="#103A5B" transform="translate(24,26)"/>
<path d="M0 0 C2.31 0 4.62 0 7 0 C7 4.95 7 9.9 7 15 C4.69 15 2.38 15 0 15 C-1 14 -1 14 -1.1328125 11.09375 C-1.13023438 9.9078125 -1.12765625 8.721875 -1.125 7.5 C-1.12757812 6.3140625 -1.13015625 5.128125 -1.1328125 3.90625 C-1 1 -1 1 0 0 Z " fill="#318DBD" transform="translate(70,53)"/>
<path d="M0 0 C2.64 0 5.28 0 8 0 C8.02685412 2.31243792 8.04632841 4.6249627 8.0625 6.9375 C8.07410156 8.22527344 8.08570313 9.51304688 8.09765625 10.83984375 C8 14 8 14 7 15 C4 15.125 4 15.125 1 15 C0 14 0 14 -0.09765625 10.83984375 C-0.08025391 8.90818359 -0.08025391 8.90818359 -0.0625 6.9375 C-0.05347656 5.64714844 -0.04445313 4.35679688 -0.03515625 3.02734375 C-0.02355469 2.02832031 -0.01195312 1.02929688 0 0 Z " fill="#2898CF" transform="translate(16,53)"/>
<path d="M0 0 C1.32547852 0.00773437 1.32547852 0.00773437 2.67773438 0.015625 C4.05735352 0.0465625 4.05735352 0.0465625 5.46484375 0.078125 C6.38845703 0.08328125 7.31207031 0.0884375 8.26367188 0.09375 C15.09323287 0.17356956 15.09323287 0.17356956 17.40234375 1.328125 C17.42919787 3.64056292 17.44867216 5.9530877 17.46484375 8.265625 C17.47644531 9.55339844 17.48804688 10.84117188 17.5 12.16796875 C17.40234375 15.328125 17.40234375 15.328125 16.40234375 16.328125 C12.763352 16.57968769 9.11150702 16.51334726 5.46484375 16.515625 C4.43681641 16.52787109 3.40878906 16.54011719 2.34960938 16.55273438 C0.87717773 16.55563477 0.87717773 16.55563477 -0.625 16.55859375 C-1.98226196 16.56475708 -1.98226196 16.56475708 -3.36694336 16.57104492 C-5.59765625 16.328125 -5.59765625 16.328125 -7.59765625 14.328125 C-7.8984375 11.83203125 -7.8984375 11.83203125 -7.91015625 8.890625 C-7.92691406 7.92253906 -7.94367188 6.95445313 -7.9609375 5.95703125 C-7.28084629 1.03551096 -4.67925974 -0.05402549 0 0 Z M-4.375 2.51953125 C-6.02402789 4.9588281 -5.89877212 6.59948443 -5.78515625 9.515625 C-5.75808594 10.41667969 -5.73101562 11.31773438 -5.703125 12.24609375 C-5.66832031 12.93316406 -5.63351563 13.62023437 -5.59765625 14.328125 C-3.32692546 15.4634904 -2.05482346 15.45704912 0.46484375 15.4609375 C1.26148438 15.46222656 2.058125 15.46351562 2.87890625 15.46484375 C4.12800781 15.45904297 4.12800781 15.45904297 5.40234375 15.453125 C6.23507813 15.45699219 7.0678125 15.46085937 7.92578125 15.46484375 C8.72242188 15.46355469 9.5190625 15.46226563 10.33984375 15.4609375 C11.43619141 15.45924561 11.43619141 15.45924561 12.5546875 15.45751953 C14.49800428 15.44014295 14.49800428 15.44014295 16.40234375 14.328125 C16.40234375 10.368125 16.40234375 6.408125 16.40234375 2.328125 C11.61007162 1.70976731 6.8591524 1.22023702 2.02734375 1.078125 C1.21523437 1.05234375 0.403125 1.0265625 -0.43359375 1 C-2.6472279 1.17846415 -2.6472279 1.17846415 -4.375 2.51953125 Z " fill="#3495C4" transform="translate(127.59765625,66.671875)"/>
<path d="M0 0 C12.54 0 25.08 0 38 0 C38.495 3.465 38.495 3.465 39 7 C38.34 6.67 37.68 6.34 37 6 C37 4.68 37 3.36 37 2 C32.39098699 2.01945375 27.78387456 2.07126712 23.17553711 2.15258789 C21.60923631 2.17572882 20.04278078 2.19015448 18.47631836 2.19555664 C16.21891297 2.20487588 13.96392779 2.24592233 11.70703125 2.29296875 C11.01100296 2.2890361 10.31497467 2.28510345 9.59785461 2.28105164 C5.61090996 2.39965695 4.10095141 2.91386108 1.01831055 5.54418945 C0.35226807 6.35460693 -0.31377441 7.16502441 -1 8 C-1.66 7.67 -2.32 7.34 -3 7 C-2.34 6.34 -1.68 5.68 -1 5 C-0.67 3.35 -0.34 1.7 0 0 Z " fill="#E4CB35" transform="translate(28,63)"/>
<path d="M0 0 C1.32 0 2.64 0 4 0 C4 7.92 4 15.84 4 24 C3.34 24 2.68 24 2 24 C2 25.98 2 27.96 2 30 C1.67 30 1.34 30 1 30 C0.67 20.1 0.34 10.2 0 0 Z " fill="#1B3D64" transform="translate(133,34)"/>
<path d="M0 0 C0.33 0 0.66 0 1 0 C1 9.24 1 18.48 1 28 C3.31 28 5.62 28 8 28 C7.34 28.33 6.68 28.66 6 29 C6 29.66 6 30.32 6 31 C2.37 31 -1.26 31 -5 31 C-5 30.34 -5 29.68 -5 29 C-4.01 29 -3.02 29 -2 29 C-2 27.02 -2 25.04 -2 23 C-1.34 23 -0.68 23 0 23 C0 15.41 0 7.82 0 0 Z " fill="#153150" transform="translate(137,35)"/>
<path d="M0 0 C2.8133438 0.04040709 4.11845148 0.21547574 6.6875 1.5 C8.1875 3.25 8.1875 3.25 8.1875 7.25 C7.5275 7.25 6.8675 7.25 6.1875 7.25 C5.8575 10.88 5.5275 14.51 5.1875 18.25 C4.8575 18.25 4.5275 18.25 4.1875 18.25 C4.1875 13.63 4.1875 9.01 4.1875 4.25 C0.5575 4.58 -3.0725 4.91 -6.8125 5.25 C-4.32944915 0.28389831 -4.32944915 0.28389831 0 0 Z " fill="#184B71" transform="translate(72.8125,48.75)"/>
<path d="M0 0 C2.33944736 0.28730055 4.6739143 0.61936779 7 1 C7.125 3.875 7.125 3.875 7 7 C6.34 7.66 5.68 8.32 5 9 C1.70285207 8.67028521 0.3773161 8.3773161 -2 6 C-1.44444444 1.44444444 -1.44444444 1.44444444 0 0 Z " fill="#81CFF9" transform="translate(127,71)"/>
<path d="M0 0 C4.95 0.33 9.9 0.66 15 1 C15 10.24 15 19.48 15 29 C14.67 29 14.34 29 14 29 C14 20.42 14 11.84 14 3 C9.71 3 5.42 3 1 3 C0.67 2.01 0.34 1.02 0 0 Z " fill="#20476A" transform="translate(120,84)"/>
<path d="M0 0 C0.33 0 0.66 0 1 0 C1 1.98 1 3.96 1 6 C13.54 6 26.08 6 39 6 C39 6.33 39 6.66 39 7 C20.19 7.495 20.19 7.495 1 8 C0.67 8.99 0.34 9.98 0 11 C-0.66 11 -1.32 11 -2 11 C-2 9.68 -2 8.36 -2 7 C-1.34 7 -0.68 7 0 7 C0 4.69 0 2.38 0 0 Z " fill="#3D647F" transform="translate(27,53)"/>
<path d="M0 0 C2.97 0 5.94 0 9 0 C9 0.66 9 1.32 9 2 C12.63 2 16.26 2 20 2 C20 1.34 20 0.68 20 0 C21.32 0 22.64 0 24 0 C24 0.66 24 1.32 24 2 C23.34 2 22.68 2 22 2 C22 2.66 22 3.32 22 4 C14.74 3.67 7.48 3.34 0 3 C0 2.01 0 1.02 0 0 Z " fill="#07395D" transform="translate(123,64)"/>
<path d="M0 0 C1.76923828 0.04060547 1.76923828 0.04060547 3.57421875 0.08203125 C4.47785156 0.11683594 5.38148438 0.15164062 6.3125 0.1875 C6.3125 0.5175 6.3125 0.8475 6.3125 1.1875 C-0.1225 1.6825 -0.1225 1.6825 -6.6875 2.1875 C-7.0175 6.1475 -7.3475 10.1075 -7.6875 14.1875 C-7.0275 14.5175 -6.3675 14.8475 -5.6875 15.1875 C-7.0075 14.8575 -8.3275 14.5275 -9.6875 14.1875 C-9.76864106 12.41742286 -9.82675505 10.64627902 -9.875 8.875 C-9.90980469 7.88886719 -9.94460937 6.90273437 -9.98046875 5.88671875 C-9.6875 3.1875 -9.6875 3.1875 -8.59375 1.34375 C-5.72821498 -0.39436141 -3.31157469 -0.0983636 0 0 Z " fill="#2C81B5" transform="translate(129.6875,66.8125)"/>
<path d="M0 0 C0.3125 2.25 0.3125 2.25 0 5 C-2.82677738 8.16941707 -4.44867942 8.93458908 -8.6875 9.4375 C-9.780625 9.293125 -10.87375 9.14875 -12 9 C-12.66 8.01 -13.32 7.02 -14 6 C-10.37 6 -6.74 6 -3 6 C-3 4.35 -3 2.7 -3 1 C-1 0 -1 0 0 0 Z " fill="#394A33" transform="translate(28,63)"/>
<path d="M0 0 C2.475 0.495 2.475 0.495 5 1 C5.125 4.375 5.125 4.375 5 8 C4.34 8.66 3.68 9.32 3 10 C1.5 8.9375 1.5 8.9375 0 7 C-0.1875 3.3125 -0.1875 3.3125 0 0 Z " fill="#259DDC" transform="translate(71,55)"/>
<path d="M0 0 C2 1.375 2 1.375 4 3 C4 3.66 4 4.32 4 5 C-2.48343811 7.63096039 -8.02330843 8.39325819 -15 8 C-15 7.01 -15 6.02 -15 5 C-14.34 5.33 -13.68 5.66 -13 6 C-10.88446939 6.0149921 -10.88446939 6.0149921 -8.5625 5.75 C-7.78003906 5.68296875 -6.99757813 5.6159375 -6.19140625 5.546875 C-3.6025214 4.90080748 -2.6607425 4.05180419 -1 2 C-0.67 1.34 -0.34 0.68 0 0 Z " fill="#EACA1F" transform="translate(83,65)"/>
<path d="M0 0 C0.66 0.33 1.32 0.66 2 1 C0.6875 3.5 0.6875 3.5 -2 6 C-5.70001295 6.45251957 -9.29013428 6.28783441 -13 6 C-13 5.34 -13 4.68 -13 4 C-11.783125 3.896875 -10.56625 3.79375 -9.3125 3.6875 C-5.55611104 3.24205211 -3.18966133 2.06389851 0 0 Z " fill="#0C304F" transform="translate(148,81)"/>
<path d="M0 0 C0.721875 0.391875 1.44375 0.78375 2.1875 1.1875 C2.1875 3.4975 2.1875 5.8075 2.1875 8.1875 C1.8575 8.1875 1.5275 8.1875 1.1875 8.1875 C1.1875 6.2075 1.1875 4.2275 1.1875 2.1875 C-3.76946581 3.42674145 -5.92908466 4.97327758 -8.8125 9.1875 C-8.44931592 2.77124793 -8.44931592 2.77124793 -5.5625 0.125 C-2.8125 -0.8125 -2.8125 -0.8125 0 0 Z " fill="#243931" transform="translate(11.8125,60.8125)"/>
<path d="M0 0 C2.31 0 4.62 0 7 0 C7 3.63 7 7.26 7 11 C6.67 11 6.34 11 6 11 C5.67 8.36 5.34 5.72 5 3 C3.68 2.67 2.36 2.34 1 2 C1.33 4.97 1.66 7.94 2 11 C1.34 11 0.68 11 0 11 C0 7.37 0 3.74 0 0 Z " fill="#3697CD" transform="translate(70,53)"/>
<path d="M0 0 C0.66 0 1.32 0 2 0 C2.33 5.28 2.66 10.56 3 16 C2.01 16 1.02 16 0 16 C-0.125 8.375 -0.125 8.375 1 5 C0.34 5 -0.32 5 -1 5 C-0.67 3.35 -0.34 1.7 0 0 Z " fill="#0D395C" transform="translate(67,53)"/>
<path d="M0 0 C2 0 2 0 3.39453125 1.30859375 C3.92433594 1.86675781 4.45414063 2.42492187 5 3 C6.84340951 4.55130608 8.70541209 6.07707443 10.57421875 7.59765625 C11.04472656 8.06042969 11.51523438 8.52320313 12 9 C12 9.66 12 10.32 12 11 C10.68 11 9.36 11 8 11 C7.91878906 10.38640625 7.83757812 9.7728125 7.75390625 9.140625 C7.18806644 6.86169372 7.18806644 6.86169372 5.15234375 5.734375 C4.05599609 5.24710938 4.05599609 5.24710938 2.9375 4.75 C2.20402344 4.41484375 1.47054687 4.0796875 0.71484375 3.734375 C0.14894531 3.49203125 -0.41695313 3.2496875 -1 3 C-0.67 2.01 -0.34 1.02 0 0 Z " fill="#133353" transform="translate(125,23)"/>
<path d="M0 0 C-0.639375 0.86625 -1.27875 1.7325 -1.9375 2.625 C-3.97548296 5.9598812 -4.63433093 8.16047478 -5 12 C-5.33 12 -5.66 12 -6 12 C-6 8.04 -6 4.08 -6 0 C-3 -1 -3 -1 0 0 Z " fill="#16395C" transform="translate(17,21)"/>
<path d="M0 0 C0.33 0 0.66 0 1 0 C1 1.98 1 3.96 1 6 C3.97 6 6.94 6 10 6 C10 6.33 10 6.66 10 7 C5.545 7.495 5.545 7.495 1 8 C0.67 8.99 0.34 9.98 0 11 C-0.66 11 -1.32 11 -2 11 C-2 9.68 -2 8.36 -2 7 C-1.34 7 -0.68 7 0 7 C0 4.69 0 2.38 0 0 Z " fill="#2D5476" transform="translate(27,53)"/>
<path d="M0 0 C0.99 0 1.98 0 3 0 C3 1.65 3 3.3 3 5 C4.65 5 6.3 5 8 5 C7.67 5.66 7.34 6.32 7 7 C2.25 6.25 2.25 6.25 0 4 C0 2.68 0 1.36 0 0 Z " fill="#75CBF0" transform="translate(125,73)"/>
<path d="M0 0 C6.15234375 -0.09765625 6.15234375 -0.09765625 8 0 C9 1 9 1 9.0625 4.0625 C9.041875 5.031875 9.02125 6.00125 9 7 C8.34 7 7.68 7 7 7 C7 5.35 7 3.7 7 2 C4.69 1.67 2.38 1.34 0 1 C0 0.67 0 0.34 0 0 Z " fill="#3EA3DB" transform="translate(127,70)"/>
<path d="M0 0 C0.33 0.66 0.66 1.32 1 2 C3.64 2 6.28 2 9 2 C5.53076119 4.31282587 4.07794425 4.42478586 0 4 C-1.875 2.5 -1.875 2.5 -3 1 C-2.01 0.67 -1.02 0.34 0 0 Z " fill="#3A4E2D" transform="translate(70,68)"/>
<path d="M0 0 C1.32 0 2.64 0 4 0 C4.33 1.65 4.66 3.3 5 5 C3.35 5 1.7 5 0 5 C0 3.35 0 1.7 0 0 Z " fill="#92CDF3" transform="translate(128,73)"/>
<path d="M0 0 C4.67692308 1.47692308 4.67692308 1.47692308 6.3125 4.125 C6.539375 4.74375 6.76625 5.3625 7 6 C5.68 5.01 4.36 4.02 3 3 C1.68 4.32 0.36 5.64 -1 7 C-0.67 4.69 -0.34 2.38 0 0 Z " fill="#CCBD43" transform="translate(81,63)"/>
<path d="M0 0 C2 0.75 2 0.75 4 3.75 C3.34 4.41 2.68 5.07 2 5.75 C1.566875 5.29625 1.13375 4.8425 0.6875 4.375 C-1.10798342 2.54975666 -1.10798342 2.54975666 -4 0.75 C-2 -0.25 -2 -0.25 0 0 Z " fill="#174366" transform="translate(130,28.25)"/>
<path d="M0 0 C0.33 0.99 0.66 1.98 1 3 C-1.475 4.485 -1.475 4.485 -4 6 C-4.66 5.34 -5.32 4.68 -6 4 C-5.34 4 -4.68 4 -4 4 C-4 3.34 -4 2.68 -4 2 C-2.68 1.34 -1.36 0.68 0 0 Z " fill="#90C8E5" transform="translate(86,126)"/>
<path d="M0 0 C0.33 0 0.66 0 1 0 C1 3.96 1 7.92 1 12 C0.01 11.01 -0.98 10.02 -2 9 C-1.85546875 6.73828125 -1.85546875 6.73828125 -1.1875 4.3125 C-0.97480469 3.50425781 -0.76210938 2.69601563 -0.54296875 1.86328125 C-0.36378906 1.24839844 -0.18460937 0.63351563 0 0 Z " fill="#17343C" transform="translate(2,70)"/>
<path d="M0 0 C-0.8125 2.4375 -0.8125 2.4375 -2 5 C-2.99 5.33 -3.98 5.66 -5 6 C-5.33 5.01 -5.66 4.02 -6 3 C-2.25 0 -2.25 0 0 0 Z " fill="#92C7E5" transform="translate(22,18)"/>
</svg>
